<?xml version="1.0" encoding="UTF-8" standalone="no"?>
<svg
   xmlns:dc="http://purl.org/dc/elements/1.1/"
   xmlns:cc="http://creativecommons.org/ns#"
   xmlns:rdf="http://www.w3.org/1999/02/22-rdf-syntax-ns#"
   xmlns:svg="http://www.w3.org/2000/svg"
   xmlns="http://www.w3.org/2000/svg"
   xmlns:sodipodi="http://sodipodi.sourceforge.net/DTD/sodipodi-0.dtd"
   xmlns:inkscape="http://www.inkscape.org/namespaces/inkscape"
   width="1370.624"
   height="1370.624"
   viewBox="-50 -30 137.06242 137.06239"
   id="svg2"
   version="1.1"
   inkscape:version="0.48.4 r9939"
   sodipodi:docname="AJAX1.svg">
  <metadata
     id="metadata14">
    <rdf:RDF>
      <cc:Work
         rdf:about="">
        <dc:format>image/svg+xml</dc:format>
        <dc:type
           rdf:resource="http://purl.org/dc/dcmitype/StillImage" />
      </cc:Work>
    </rdf:RDF>
  </metadata>
  <defs
     id="defs12" />
  <sodipodi:namedview
     pagecolor="#ffffff"
     bordercolor="#666666"
     borderopacity="1"
     objecttolerance="10"
     gridtolerance="10"
     guidetolerance="10"
     inkscape:pageopacity="0"
     inkscape:pageshadow="2"
     inkscape:window-width="1280"
     inkscape:window-height="1004"
     id="namedview10"
     showgrid="false"
     fit-margin-top="0"
     fit-margin-left="0"
     fit-margin-right="0"
     fit-margin-bottom="0"
     inkscape:zoom="0.19946051"
     inkscape:cx="586.28294"
     inkscape:cy="78.579358"
     inkscape:window-x="-8"
     inkscape:window-y="-8"
     inkscape:window-maximized="1"
     inkscape:current-layer="svg2"
     showguides="true"
     inkscape:guide-bbox="true" />
  <path
     style="font-size:medium;font-style:normal;font-variant:normal;font-weight:normal;font-stretch:normal;text-indent:0;text-align:start;text-decoration:none;line-height:normal;letter-spacing:normal;word-spacing:normal;text-transform:none;direction:ltr;block-progression:tb;writing-mode:lr-tb;text-anchor:start;baseline-shift:baseline;color:#000000;fill:#000000;fill-opacity:1;stroke:none;stroke-width:5;marker:none;visibility:visible;display:inline;overflow:visible;enable-background:accumulate;font-family:Sans;-inkscape-font-specification:Sans"
     d="m -47.981023,43.436752 c -2.691969,-2.691972 -2.691969,-7.119136 0,-9.811108 l 61.606685,-61.606682 c 2.691971,-2.69197 7.119133,-2.69197 9.811106,0 l 61.606679,61.606682 c 2.69197,2.691972 2.69197,7.119136 0,9.811108 L 23.436768,105.04343 c -2.691972,2.69197 -7.119134,2.69197 -9.811106,0 z"
     id="rect4054"
     inkscape:connector-curvature="0"
     sodipodi:nodetypes="sssssssss" />
  <path
     style="fill:#ffeb00;fill-opacity:1;stroke:none"
     d="m 21.675629,-26.206638 c -1.736669,-1.73667 -4.552163,-1.73667 -6.288831,0 l -61.59343,61.593424 c -1.73666,1.736666 -1.73666,4.55216 10e-6,6.288832 l 61.593421,61.593412 c 1.736669,1.73667 4.552162,1.73667 6.28883,1e-5 l 61.59342,-61.59342 c 1.73667,-1.73667 1.73667,-4.552164 0,-6.288834 z"
     id="rect4054-7"
     inkscape:connector-curvature="0"
     sodipodi:nodetypes="sssssssss" />
  <path
     style="fill:#000000;fill-opacity:1;stroke:none"
     d="m -33.099999,22.28123 -13.769154,12.664316 c -1.807673,1.662625 -1.96692,6.037397 -0.147312,7.686963 l 18.916467,17.148724 93.262509,0 18.990122,-17.148724 c 1.82279,-1.646045 2.14183,-6.215666 0.29462,-7.834275 L 70.162512,22.28123 z"
     id="rect3101"
     inkscape:connector-curvature="0"
     sodipodi:nodetypes="cssccsscc" />
  <path
     style="fill:#ffffff;fill-opacity:1;stroke:none"
     d="m -33.099999,22.28123 -10.571876,10.571876 -2.1625,9.193751 11.428126,11.428126 7.340626,-31.193753 -6.034376,0 z"
     id="path3104"
     inkscape:connector-curvature="0" />
  <path
     inkscape:connector-curvature="0"
     id="path3108"
     d="m -12.94931,22.281112 14.1176752,0 -8.8235469,37.500076 -14.1176753,0 z"
     style="fill:#ffffff;fill-opacity:1;stroke:none"
     sodipodi:nodetypes="ccccc" />
  <path
     style="fill:#ffffff;fill-opacity:1;stroke:none"
     d="m 15.286046,22.281112 14.117674,0 -8.823546,37.500076 -14.1176803,0 z"
     id="path3123"
     inkscape:connector-curvature="0"
     sodipodi:nodetypes="ccccc" />
  <path
     inkscape:connector-curvature="0"
     id="path3140"
     d="m 43.521393,22.281112 14.117675,0 -8.823547,37.500076 -14.117675,0 z"
     style="fill:#ffffff;fill-opacity:1;stroke:none"
     sodipodi:nodetypes="ccccc" />
  <path
     style="fill:#ffffff;fill-opacity:1;stroke:none"
     d="m 71.453132,23.571855 -8.518741,36.209378 2.22812,0 15.546882,-15.546875 2.17187,-9.234376 -11.428131,-11.428126 z"
     id="path3160"
     inkscape:connector-curvature="0" />
  <path
     d="m 22.798455,25.074119 -0.57613,-2.049463 -0.192043,-1.791404 0.06302,-2.241507 0.06602,-1.794405 0.318071,-1.344306 0.258058,-0.450101 0.321073,0.129029 1.599361,2.625595 1.089246,1.602362 1.407317,1.85742 1.473335,1.728389 2.307521,0.768174 2.241507,0.255058 1.665375,0.258058 1.023231,-0.192043 0.768174,-0.768173 0.258058,-0.705159 -0.321072,-0.83419 L 35.60836,21.809382 33.624912,21.617339 32.59868,20.465078 31.188362,19.054759 29.907072,17.452397 28.883841,15.724005 28.115667,13.482499 27.344492,10.343791 26.513305,8.5493852 25.29503,7.0130366 23.821697,5.6057183 23.182552,4.3244286 C 22.483394,3.1931737 23.764684,2.022909 24.463842,1.3147483 l 0.705159,-0.64214504 0.513116,-1.72839076 0.126029,-0.9602172 -0.576131,-1.8574198 -1.410318,-1.0892462 -1.920435,-0.1920434 -1.344302,0 -2.304523,1.5363474 -0.192043,1.3443039 0,0.8972028 0.255058,1.34430396 0.255057,0.8341884 C 19.956823,3.5232482 19.308677,3.2621887 16.265989,4.5164721 L 14.729642,5.0926023 13.511367,5.5397036 11.975019,6.4369064 10.564701,7.5261525 9.0283535,8.8074433 7.876093,10.280776 l -1.3443029,1.983448 -1.473333,4.164941 -0.3840869,1.536348 -0.129029,1.473333 -0.1290302,1.152261 -0.063008,1.218275 -0.06602,1.152261 0.3870883,1.602362 0.4471001,0.255056 0.7051604,1.023232 0.5101145,0.384088 0.5791306,0.258058 0.4471012,-0.06302 0.1920434,-0.963218 C 6.1567064,20.813152 7.9991225,16.192107 10.885776,12.585292 l 0.639143,-0.192044 0.192043,0.642146 c 0.04501,12.653859 -4.3089735,22.133005 -13.7040964,30.549907 l -0.3210838,0.321073 0.7051593,1.85742 0.5761303,0.702158 0.7681737,1.089246 0.5131159,0.834188 0.57613028,0.831188 0.44710122,0.70516 0.3840868,0.639144 0.7051594,0.321073 0.5761302,-0.129029 0.3210725,-0.510116 0.063019,-1.218275 -0.1920434,-1.344304 -0.5761303,-1.857419 0.1290291,-1.15226 0.5761302,-0.834189 1.0892462,-1.218276 1.2812896,-1.407319 1.1522594,-0.897202 0.8972028,-0.960217 0.9602171,-1.152261 1.0232314,-1.218275 1.4733325,-1.791404 1.155261,-1.218277 0.960217,-1.15226 1.023232,-1.728391 0.513116,-1.28129 0.384087,-1.218275 0.255057,-1.023231 0.12903,-0.450102 0.321072,-0.192043 0.768174,0.258058 0.513114,0.702159 0.513116,1.602362 0.894203,2.754623 0.57613,1.665376 0.897204,2.178493 0.513116,1.599361 0.768174,2.43355 0.705159,2.115478 0.639143,2.496566 1.089247,3.201723 0.768173,2.946666 0.576131,1.728392 0.705159,0.705159 1.218275,0.129029 1.215274,-0.258058 1.347305,-0.318072 2.241507,-0.450102 1.665377,-1.152261 0,-0.831189 -1.089247,-0.513115 -2.178492,-0.06302 -2.370537,0.06302 -0.384087,-1.986449 C 25.754128,42.16598 25.114983,34.77531 23.95072,28.662927 l -0.384087,-0.897203 -0.768174,-2.691609 z"
     style="fill:#000000;fill-opacity:1;stroke:none;stroke-width:0.41000005000000000;stroke-miterlimit:4;stroke-opacity:1;stroke-dasharray:none"
     id="path5064"
     inkscape:connector-curvature="0" />
  <path
     style="font-size:medium;font-style:normal;font-variant:normal;font-weight:normal;font-stretch:normal;text-indent:0;text-align:start;text-decoration:none;line-height:normal;letter-spacing:normal;word-spacing:normal;text-transform:none;direction:ltr;block-progression:tb;writing-mode:lr-tb;text-anchor:start;baseline-shift:baseline;color:#000000;fill:#ffeb00;fill-opacity:1;fill-rule:nonzero;stroke:none;stroke-width:0.41000006000000000;marker:none;visibility:visible;display:inline;overflow:visible;enable-background:accumulate;font-family:Sans;-inkscape-font-specification:Sans"
     d="M 705 246.25 L 704.375 246.875 L 681.25 262.1875 L 680.625 262.5 L 680.625 263.4375 L 678.4375 276.875 L 678.4375 277.1875 L 678.4375 286.25 L 678.4375 286.5625 L 681.25 300 L 681.25 300.3125 L 683.75 308.75 L 683.75 309.0625 C 687.19248 315.82078 689.52758 320.63952 690.3125 324.0625 C 691.0974 327.48548 690.7983 328.96019 689.375 330.625 C 687.95174 332.28981 684.90046 334.02723 680.3125 335.9375 C 675.72454 337.84777 669.52859 339.96997 661.875 343.125 L 646.5625 349.0625 L 634.375 353.4375 L 634.0625 353.75 L 618.75 362.5 L 618.75 362.8125 L 618.4375 362.8125 L 604.375 373.75 L 589.0625 386.5625 L 588.75 386.5625 L 588.75 386.875 L 577.1875 401.5625 L 563.75 421.5625 L 563.4375 421.5625 L 563.4375 421.875 L 548.75 463.75 L 544.6875 479.0625 L 544.6875 479.375 L 543.4375 494.0625 L 542.1875 505.625 L 542.1875 505.9375 L 541.5625 518.125 L 541.3125 522.8125 L 545.34375 522.8125 L 545.625 518.125 L 546.25 506.25 L 546.25 505.9375 L 547.5 494.6875 L 548.75 480 L 548.75 479.6875 L 552.5 465 L 552.5 464.6875 L 566.875 423.75 L 567.1875 423.4375 L 580.3125 404.0625 L 591.5625 389.6875 L 591.875 389.375 L 606.875 376.875 L 620.9375 365.9375 L 620.9375 366.25 L 635.9375 357.1875 L 636.25 357.1875 L 648.125 352.8125 L 663.4375 347.1875 C 670.99735 344.07112 677.12335 341.66592 681.875 339.6875 C 686.62665 337.70908 690.23243 336.08991 692.5 333.4375 C 694.76757 330.78509 695.32297 327.25904 694.375 323.125 C 693.44946 319.08879 691.16223 314.10327 687.8125 307.5 L 687.5 307.5 L 687.5 307.1875 L 685.3125 299.375 L 682.5 286.25 L 682.5 285.9375 L 682.5 277.5 L 682.5 277.1875 L 684.375 265 L 706.25 250.625 L 718.75 250.625 L 719.0625 250.625 L 737.5 252.5 L 750.625 262.5 L 755.9375 279.6875 L 754.6875 289.0625 L 755 289.0625 L 750 305.625 L 743.125 311.5625 C 739.67243 315.05952 734.65912 320.06422 731.25 325.625 C 727.8932 331.10044 726.27451 337.74684 730 344.0625 L 730 344.375 L 736.25 356.875 L 736.5625 357.1875 L 736.875 357.5 L 751.25 371.25 L 751.5625 371.5625 L 763.125 386.25 L 763.4375 386.875 L 771.5625 404.0625 L 771.5625 404.375 L 779.0625 435.3125 L 779.0625 435.625 L 786.875 457.8125 L 786.875 458.125 L 787.1875 458.4375 L 797.1875 475.625 L 797.5 475.625 L 797.5 475.9375 L 810.3125 491.875 L 824.375 505.9375 L 824.6875 506.25 L 834.6875 517.5 L 835.3125 518.125 L 835.9375 518.125 L 855.3125 520 L 855.9375 520 L 864.0625 522.8125 L 868.4375 522.8125 L 867.5 520.625 L 867.1875 519.6875 L 866.25 519.375 L 856.875 516.25 L 856.5625 515.9375 L 856.25 515.9375 L 837.1875 514.0625 L 827.5 503.4375 L 827.5 503.125 L 813.4375 489.375 L 800.9375 473.4375 L 800.625 473.125 L 790.625 456.5625 L 790.625 456.25 L 783.125 434.375 L 783.125 434.0625 L 775.3125 402.8125 L 775.3125 402.5 L 766.875 384.6875 L 766.875 384.375 L 754.6875 368.75 L 754.375 368.75 L 740 355 L 739.6875 354.6875 L 733.75 342.1875 L 733.4375 342.1875 C 730.40235 337.27655 731.69017 332.70158 734.6875 327.8125 C 737.68483 322.92342 742.71099 318.27208 746.25 314.6875 L 753.125 308.125 L 753.4375 307.8125 L 753.75 307.1875 L 758.75 290 L 758.75 289.6875 L 760 280 L 760.3125 279.6875 L 760 279.375 L 754.375 260.625 L 754.0625 260 L 753.4375 259.6875 L 739.375 248.75 L 739.0625 248.4375 L 738.4375 248.4375 L 719.0625 246.5625 L 719.0625 246.25 L 705.625 246.25 L 705 246.25 z M 616.5625 421.25 L 614.6875 421.875 L 608.125 423.75 L 607.8125 424.0625 L 607.1875 424.6875 C 584.76153 452.70829 568.64827 486.95864 568.90625 522.8125 L 572.8125 522.8125 C 572.56585 488.21986 588.10267 454.97179 610 427.5 L 614.0625 426.5625 L 615 430.3125 C 615.11696 463.19431 612.24294 493.89145 606.3125 522.8125 L 610.6875 522.8125 C 616.62269 493.84301 619.49174 463.13112 619.375 430.3125 L 619.0625 430 L 619.0625 429.6875 L 617.1875 423.4375 L 616.5625 421.25 z M 726.5625 451.5625 L 725.625 453.125 L 723.125 457.5 L 722.8125 457.8125 L 722.8125 458.125 L 719.6875 471.5625 L 719.6875 471.875 L 718.75 489.6875 L 718.75 490 L 718.125 512.1875 L 718.125 512.5 L 719.40625 522.8125 L 723.46875 522.8125 L 722.1875 512.5 L 722.5 512.5 L 723.125 490 L 723.75 472.1875 L 723.4375 472.1875 L 726.5625 459.6875 L 726.875 459.0625 L 728.125 456.5625 L 729.0625 456.875 L 744.6875 482.5 L 744.6875 482.8125 L 745 482.8125 L 755.625 498.75 L 755.9375 498.75 L 770 517.5 L 774.53125 522.8125 L 779.78125 522.8125 L 773.125 515 L 759.0625 496.5625 L 759.0625 496.25 L 748.4375 480.625 L 748.125 480.3125 L 732.1875 454.375 L 731.875 453.75 L 731.25 453.4375 L 728.125 452.1875 L 726.5625 451.5625 z "
     transform="matrix(0.10000001,0,0,0.10000001,-50,-30.000015)"
     id="path3986" />
  <path
     style="font-size:medium;font-style:normal;font-variant:normal;font-weight:normal;font-stretch:normal;text-indent:0;text-align:start;text-decoration:none;line-height:normal;letter-spacing:normal;word-spacing:normal;text-transform:none;direction:ltr;block-progression:tb;writing-mode:lr-tb;text-anchor:start;baseline-shift:baseline;color:#000000;fill:#ffffff;fill-opacity:1;fill-rule:nonzero;stroke:none;stroke-width:0.41000006;marker:none;visibility:visible;display:inline;overflow:visible;enable-background:accumulate;font-family:Sans;-inkscape-font-specification:Sans"
     d="M 541.3125 522.8125 L 540.9375 529.375 L 540.9375 529.6875 L 540.9375 530 L 544.6875 546.25 L 545 546.875 L 545.625 547.5 L 549.375 549.375 L 549.375 549.6875 L 556.5625 559.6875 L 556.875 560 L 557.1875 560 L 562.1875 563.75 L 562.1875 564.0625 L 562.5 564.0625 L 568.4375 566.5625 L 568.75 566.875 L 569.375 566.875 L 574.0625 566.25 L 575.3125 565.9375 L 575.625 564.6875 L 577.5 555 L 577.8125 554.375 L 577.5 554.0625 C 574.35044 543.60001 572.88621 533.15077 572.8125 522.8125 L 568.90625 522.8125 C 568.98051 533.13263 570.41047 543.5874 573.4375 554.0625 C 573.4969 554.2681 573.3769 554.4819 573.4375 554.6875 L 571.875 562.5 L 569.0625 562.8125 L 564.6875 560.625 L 564.0625 560.3125 L 560 557.1875 L 552.8125 546.875 L 552.5 546.5625 L 552.1875 546.5625 L 548.4375 544.0625 L 545 529.6875 L 545 529.0625 L 545.34375 522.8125 L 541.3125 522.8125 z M 606.3125 522.8125 C 589.50638 604.7711 547.94782 672.38206 478.75 734.375 L 475.3125 737.5 L 474.375 738.4375 L 475 739.6875 L 482.1875 758.4375 L 482.1875 758.75 L 482.5 759.0625 L 488.125 765.9375 L 495.625 776.5625 L 495.625 776.875 L 500.9375 785 L 506.5625 793.4375 L 510.9375 800.3125 L 515 806.5625 L 515.3125 807.1875 L 515.625 807.5 L 522.8125 810.625 L 523.4375 810.9375 L 524.0625 810.9375 L 530 809.6875 L 530.625 809.375 L 531.25 808.75 L 534.375 803.4375 L 534.6875 803.125 L 534.6875 802.5 L 535.3125 790.3125 L 535.3125 790 L 533.4375 776.5625 L 533.4375 776.25 L 527.5 758.4375 L 527.5 758.125 L 527.5 757.8125 L 529.0625 746.875 L 534.375 739.6875 L 534.0625 739.6875 L 545 727.5 L 557.5 713.75 L 557.8125 713.4375 L 569.0625 704.6875 L 569.375 704.6875 L 578.4375 695 L 588.125 683.4375 L 598.125 671.25 L 612.8125 653.4375 L 613.125 653.125 L 624.375 641.25 L 624.6875 640.9375 L 634.0625 629.6875 L 634.375 629.375 L 644.6875 611.875 L 649.6875 599.0625 L 650 598.75 L 653.75 586.5625 L 656.25 576.25 L 657.1875 572.8125 L 659.0625 571.5625 L 665.3125 573.4375 L 669.6875 579.6875 L 674.6875 595.625 L 683.75 623.125 L 689.375 639.6875 L 689.6875 640 L 698.4375 661.5625 L 703.75 677.5 L 711.25 701.875 L 718.4375 722.8125 L 718.4375 723.125 L 724.6875 747.8125 L 724.6875 748.125 L 735.625 780 L 743.4375 809.375 L 749.0625 826.875 L 749.375 827.1875 L 749.6875 827.5 L 756.5625 834.6875 L 757.1875 835.3125 L 757.8125 835.3125 L 770 836.5625 L 770.3125 836.5625 L 770.625 836.5625 L 782.8125 834.0625 L 782.8125 833.75 L 796.25 830.625 L 818.75 826.25 L 819.0625 826.25 L 819.375 825.9375 L 836.25 814.375 L 836.875 813.75 L 836.875 812.8125 L 836.875 804.375 L 836.875 803.125 L 835.9375 802.5 L 825 797.5 L 824.6875 797.1875 L 824.0625 797.1875 L 802.1875 796.5625 L 780.3125 797.1875 L 776.875 779.0625 L 776.875 778.75 L 776.5625 778.75 C 759.46557 721.34245 753.23616 647.53673 741.5625 586.25 L 741.5625 585.9375 L 741.25 585.9375 L 737.5 577.1875 L 737.5 576.875 L 730 550.3125 L 724.0625 530 L 724.375 530 L 723.46875 522.8125 L 719.40625 522.8125 L 720.3125 530.3125 L 720.3125 530.625 L 720.3125 530.9375 L 725.9375 551.25 L 733.75 578.125 L 733.75 578.4375 L 737.5 587.5 C 749.02485 648.2554 755.63687 721.85148 772.8125 779.6875 L 772.8125 780 L 776.5625 799.6875 L 776.875 801.25 L 778.75 801.25 L 802.1875 800.625 L 823.125 801.25 L 832.8125 805.625 L 832.8125 811.5625 L 817.8125 822.1875 L 817.5 822.1875 L 795.625 826.5625 L 795.3125 826.875 L 781.875 830 L 770 832.5 L 769.6875 832.5 L 758.75 831.25 L 753.125 825.625 L 753.125 825.3125 L 747.1875 808.4375 L 747.1875 808.125 L 739.6875 778.75 L 739.375 778.75 L 728.75 746.875 L 728.75 746.5625 L 722.1875 721.875 L 715.3125 700.625 L 707.5 676.25 L 702.5 660.3125 L 702.1875 660 L 693.4375 638.4375 L 687.5 621.875 L 678.75 594.375 L 673.4375 578.4375 L 673.4375 578.125 L 673.4375 577.8125 L 668.125 570.625 L 667.8125 570.3125 L 667.1875 570 L 659.375 567.5 L 658.4375 567.1875 L 657.8125 567.5 L 654.6875 569.375 L 653.75 570 L 653.75 570.625 L 652.5 575.3125 L 652.1875 575.3125 L 649.6875 585.3125 L 649.6875 585.625 L 645.9375 597.5 L 640.9375 610 L 640.9375 610.3125 L 630.9375 626.875 L 630.9375 627.1875 L 621.25 638.4375 L 621.5625 638.4375 L 610 650.625 L 609.6875 650.625 L 595 668.4375 L 585 680.625 L 575.3125 692.1875 L 566.5625 701.5625 L 566.25 701.875 L 555 710.625 L 554.6875 710.625 L 541.875 724.6875 L 541.875 725 L 531.25 737.1875 L 530.9375 737.1875 L 525.3125 745.625 L 525 745.9375 L 524.6875 746.5625 L 523.4375 758.125 L 523.4375 758.4375 L 523.75 758.75 L 529.375 777.1875 L 529.375 777.5 L 531.25 790.3125 L 531.25 790.625 L 530.625 801.5625 L 528.125 805.9375 L 524.0625 806.5625 L 518.125 804.0625 L 514.6875 798.125 L 514.375 798.125 L 510 791.25 L 510 790.9375 L 504.375 782.8125 L 499.0625 774.375 L 491.25 763.4375 L 485.9375 756.875 L 485.625 756.5625 L 485.625 756.25 L 479.375 739.6875 L 481.5625 737.5 L 481.5625 737.1875 C 551.37894 674.58734 593.66732 605.88749 610.6875 522.8125 L 606.3125 522.8125 z M 774.53125 522.8125 L 784.6875 534.6875 L 785 535.3125 L 785.625 535.3125 L 808.75 543.125 L 809.0625 543.125 L 831.5625 545.625 L 848.125 548.4375 L 848.4375 548.4375 L 848.75 548.4375 L 859.0625 546.25 L 859.6875 546.25 L 860 545.9375 L 867.8125 538.125 L 868.125 537.8125 L 868.125 537.5 L 870.9375 530.3125 L 870.9375 529.6875 L 870.9375 528.75 L 868.4375 522.8125 L 864.0625 522.8125 L 866.5625 529.6875 L 864.375 535.9375 L 858.125 542.1875 L 857.8125 542.1875 L 848.75 544.375 L 848.125 544.375 L 832.1875 541.5625 L 831.875 541.5625 L 810 539.0625 L 809.6875 539.0625 L 787.5 531.875 L 779.78125 522.8125 L 774.53125 522.8125 z "
     transform="matrix(0.10000001,0,0,0.10000001,-50,-30.000015)"
     id="path4008" />
</svg>
